# Blender 4.3.2
# www.blender.org
mtllib playerCollisionMesh.mtl.mtl
o Sphere.001
v 0.000000 -1.000000 -1.000000
v 0.146447 -1.923880 -0.353553
v 0.270598 -1.707107 -0.653281
v 0.353553 -1.382684 -0.853553
v 0.382683 -1.000000 -0.923879
v 0.270598 -1.923880 -0.270598
v 0.500000 -1.707107 -0.500000
v 0.653281 -1.382684 -0.653281
v 0.707107 -1.000000 -0.707107
v 0.000000 -2.000000 0.000000
v 0.353553 -1.923880 -0.146447
v 0.653281 -1.707107 -0.270598
v 0.853553 -1.382684 -0.353553
v 0.923879 -1.000000 -0.382683
v 0.382683 -1.923880 0.000000
v 0.707107 -1.707107 -0.000000
v 0.923879 -1.382684 -0.000000
v 1.000000 -1.000000 0.000000
v 0.353553 -1.923880 0.146447
v 0.653281 -1.707107 0.270598
v 0.853553 -1.382684 0.353553
v 0.923879 -1.000000 0.382683
v 0.270598 -1.923880 0.270598
v 0.500000 -1.707107 0.500000
v 0.653281 -1.382684 0.653281
v 0.707106 -1.000000 0.707107
v 0.146447 -1.923880 0.353553
v 0.270598 -1.707107 0.653281
v 0.353553 -1.382684 0.853553
v 0.382683 -1.000000 0.923879
v -0.000000 -1.923880 0.382683
v -0.000000 -1.707107 0.707107
v 0.000000 -1.382684 0.923879
v -0.000000 -1.000000 0.999999
v -0.146447 -1.923880 0.353553
v -0.270598 -1.707107 0.653281
v -0.353553 -1.382684 0.853553
v -0.382683 -1.000000 0.923879
v -0.270598 -1.923880 0.270598
v -0.500000 -1.707107 0.500000
v -0.653281 -1.382684 0.653281
v -0.707106 -1.000000 0.707106
v -0.353553 -1.923880 0.146447
v -0.653281 -1.707107 0.270598
v -0.853553 -1.382684 0.353553
v -0.923879 -1.000000 0.382683
v -0.382683 -1.923880 -0.000000
v -0.707107 -1.707107 -0.000000
v -0.923879 -1.382684 -0.000000
v -0.999999 -1.000000 -0.000000
v -0.353553 -1.923880 -0.146447
v -0.653281 -1.707107 -0.270598
v -0.853553 -1.382684 -0.353553
v -0.923878 -1.000000 -0.382683
v -0.270598 -1.923880 -0.270598
v -0.500000 -1.707107 -0.500000
v -0.653281 -1.382684 -0.653281
v -0.707106 -1.000000 -0.707106
v -0.146446 -1.923880 -0.353553
v -0.270598 -1.707107 -0.653281
v -0.353553 -1.382684 -0.853553
v -0.382683 -1.000000 -0.923879
v 0.000000 -1.923880 -0.382683
v 0.000000 -1.707107 -0.707107
v 0.000000 -1.382684 -0.923879
v 0.000000 1.000000 -1.000000
v -0.146446 1.923880 -0.353553
v -0.270598 1.707107 -0.653281
v -0.353553 1.382684 -0.853553
v -0.382683 1.000000 -0.923879
v -0.270598 1.923880 -0.270598
v -0.500000 1.707107 -0.500000
v -0.653281 1.382684 -0.653281
v -0.707107 1.000000 -0.707107
v 0.000000 2.000000 0.000000
v -0.353553 1.923880 -0.146447
v -0.653281 1.707107 -0.270598
v -0.853553 1.382684 -0.353553
v -0.923879 1.000000 -0.382683
v -0.382683 1.923880 0.000000
v -0.707106 1.707107 -0.000000
v -0.923879 1.382684 -0.000000
v -0.999999 1.000000 0.000000
v -0.353553 1.923880 0.146447
v -0.653281 1.707107 0.270598
v -0.853553 1.382684 0.353553
v -0.923879 1.000000 0.382683
v -0.270598 1.923880 0.270598
v -0.500000 1.707107 0.500000
v -0.653281 1.382684 0.653281
v -0.707106 1.000000 0.707107
v -0.146446 1.923880 0.353553
v -0.270598 1.707107 0.653281
v -0.353553 1.382684 0.853553
v -0.382683 1.000000 0.923879
v 0.000000 1.923880 0.382683
v 0.000000 1.707107 0.707107
v 0.000000 1.382684 0.923879
v 0.000001 1.000000 0.999999
v 0.146447 1.923880 0.353553
v 0.270598 1.707107 0.653281
v 0.353553 1.382684 0.853553
v 0.382684 1.000000 0.923879
v 0.270598 1.923880 0.270598
v 0.500000 1.707107 0.500000
v 0.653281 1.382684 0.653281
v 0.707107 1.000000 0.707106
v 0.353554 1.923880 0.146447
v 0.653282 1.707107 0.270598
v 0.853553 1.382684 0.353553
v 0.923879 1.000000 0.382683
v 0.382683 1.923880 -0.000000
v 0.707107 1.707107 -0.000000
v 0.923879 1.382684 -0.000000
v 0.999999 1.000000 -0.000000
v 0.353553 1.923880 -0.146447
v 0.653282 1.707107 -0.270598
v 0.853553 1.382684 -0.353553
v 0.923879 1.000000 -0.382683
v 0.270598 1.923880 -0.270598
v 0.500000 1.707107 -0.500000
v 0.653281 1.382684 -0.653281
v 0.707106 1.000000 -0.707106
v 0.146447 1.923880 -0.353553
v 0.270598 1.707107 -0.653281
v 0.353553 1.382684 -0.853553
v 0.382683 1.000000 -0.923879
v 0.000000 1.923880 -0.382683
v 0.000000 1.707107 -0.707107
v 0.000000 1.382684 -0.923879
vn 0.0388 -0.9800 0.1949
vn -0.1949 -0.9800 0.0388
vn -0.0388 -0.9800 -0.1949
vn 0.1653 -0.9800 -0.1104
vn 0.1949 -0.9800 -0.0388
vn -0.1104 -0.9800 -0.1653
vn -0.1653 -0.9800 0.1104
vn 0.1104 -0.9800 0.1653
vn 0.0388 -0.9800 -0.1949
vn -0.1949 -0.9800 -0.0388
vn -0.0388 -0.9800 0.1949
vn 0.1653 -0.9800 0.1104
vn -0.1104 -0.9800 0.1653
vn -0.1653 -0.9800 -0.1104
vn 0.1104 -0.9800 -0.1653
vn 0.1098 -0.8264 -0.5522
vn -0.3128 -0.8264 -0.4681
vn -0.5522 -0.8264 -0.1098
vn -0.4681 -0.8264 0.3128
vn -0.1098 -0.8264 0.5522
vn 0.3128 -0.8264 -0.4681
vn -0.1098 -0.8264 -0.5522
vn -0.4681 -0.8264 -0.3128
vn -0.5522 -0.8264 0.1098
vn -0.3128 -0.8264 0.4681
vn 0.1632 -0.5481 -0.8203
vn -0.4647 -0.5481 -0.6954
vn -0.8203 -0.5481 -0.1632
vn -0.6954 -0.5481 0.4647
vn -0.1632 -0.5481 0.8203
vn 0.4647 -0.5481 0.6954
vn 0.8203 -0.5481 0.1632
vn 0.6954 -0.5481 -0.4647
vn -0.8203 -0.5481 0.1632
vn -0.4647 -0.5481 0.6954
vn 0.1632 -0.5481 0.8203
vn 0.6954 -0.5481 0.4647
vn 0.8203 -0.5481 -0.1632
vn 0.4647 -0.5481 -0.6954
vn -0.1632 -0.5481 -0.8203
vn -0.6954 -0.5481 -0.4647
vn 0.5453 -0.1915 0.8161
vn -0.1915 -0.1915 0.9626
vn -0.8161 -0.1915 0.5453
vn -0.9626 -0.1915 -0.1915
vn -0.5453 -0.1915 -0.8161
vn 0.1915 -0.1915 -0.9626
vn 0.8161 -0.1915 -0.5453
vn 0.9626 -0.1915 0.1915
vn 0.1915 -0.1915 0.9626
vn 0.8161 -0.1915 0.5453
vn 0.9626 -0.1915 -0.1915
vn 0.5453 -0.1915 -0.8161
vn -0.1915 -0.1915 -0.9626
vn -0.8161 -0.1915 -0.5453
vn -0.9626 -0.1915 0.1915
vn -0.5453 -0.1915 0.8161
vn 0.1098 -0.8264 0.5522
vn 0.3128 -0.8264 0.4681
vn 0.4681 -0.8264 0.3128
vn 0.5522 -0.8264 0.1098
vn 0.5522 -0.8264 -0.1098
vn 0.4681 -0.8264 -0.3128
vn 0.1949 -0.9800 0.0388
vn -0.0388 0.9800 0.1949
vn 0.1949 0.9800 0.0388
vn 0.0388 0.9800 -0.1949
vn -0.1653 0.9800 -0.1104
vn -0.1949 0.9800 -0.0388
vn 0.1104 0.9800 -0.1653
vn 0.1653 0.9800 0.1104
vn -0.1104 0.9800 0.1653
vn -0.0388 0.9800 -0.1949
vn 0.1949 0.9800 -0.0388
vn 0.0388 0.9800 0.1949
vn -0.1653 0.9800 0.1104
vn 0.1104 0.9800 0.1653
vn 0.1653 0.9800 -0.1104
vn -0.1104 0.9800 -0.1653
vn -0.1098 0.8264 -0.5522
vn 0.3128 0.8264 -0.4681
vn 0.5522 0.8264 -0.1098
vn 0.4681 0.8264 0.3128
vn 0.1098 0.8264 0.5522
vn -0.3128 0.8264 -0.4681
vn 0.1098 0.8264 -0.5522
vn 0.4681 0.8264 -0.3128
vn 0.5522 0.8264 0.1098
vn 0.3128 0.8264 0.4681
vn -0.1632 0.5481 -0.8203
vn 0.4647 0.5481 -0.6954
vn 0.8203 0.5481 -0.1632
vn 0.6954 0.5481 0.4647
vn 0.1632 0.5481 0.8203
vn -0.4647 0.5481 0.6954
vn -0.8203 0.5481 0.1632
vn -0.6954 0.5481 -0.4647
vn 0.8203 0.5481 0.1632
vn 0.4647 0.5481 0.6954
vn -0.1632 0.5481 0.8203
vn -0.6954 0.5481 0.4647
vn -0.8203 0.5481 -0.1632
vn -0.4647 0.5481 -0.6954
vn 0.1632 0.5481 -0.8203
vn 0.6954 0.5481 -0.4647
vn -0.5453 0.1915 0.8161
vn 0.1915 0.1915 0.9626
vn 0.8161 0.1915 0.5453
vn 0.9626 0.1915 -0.1915
vn 0.5453 0.1915 -0.8161
vn -0.1915 0.1915 -0.9626
vn -0.8161 0.1915 -0.5453
vn -0.9626 0.1915 0.1915
vn -0.1915 0.1915 0.9626
vn -0.8161 0.1915 0.5453
vn -0.9626 0.1915 -0.1915
vn -0.5453 0.1915 -0.8161
vn 0.1915 0.1915 -0.9626
vn 0.8161 0.1915 -0.5453
vn 0.9626 0.1915 0.1915
vn 0.5453 0.1915 0.8161
vn -0.1098 0.8264 0.5522
vn -0.3128 0.8264 0.4681
vn -0.4681 0.8264 0.3128
vn -0.5522 0.8264 0.1098
vn -0.5522 0.8264 -0.1098
vn -0.4681 0.8264 -0.3128
vn -0.1949 0.9800 0.0388
vn -0.9808 -0.0000 -0.1951
vn -0.8315 -0.0000 -0.5556
vn -0.5556 -0.0000 -0.8315
vn -0.1951 -0.0000 -0.9808
vn 0.1951 -0.0000 -0.9808
vn 0.8315 -0.0000 -0.5556
vn 0.5556 -0.0000 -0.8315
vn 0.9808 -0.0000 -0.1951
vn 0.9808 -0.0000 0.1951
vn 0.8315 -0.0000 0.5556
vn 0.5556 -0.0000 0.8315
vn 0.1951 -0.0000 0.9808
vn -0.1951 -0.0000 0.9808
vn -0.5556 -0.0000 0.8315
vn -0.8315 -0.0000 0.5556
vn -0.9808 -0.0000 0.1951
vt 0.000000 0.000000
s 0
f 10/1/1 27/1/1 31/1/1
f 47/1/2 10/1/2 43/1/2
f 10/1/3 59/1/3 63/1/3
f 10/1/4 6/1/4 11/1/4
f 15/1/5 10/1/5 11/1/5
f 59/1/6 10/1/6 55/1/6
f 43/1/7 10/1/7 39/1/7
f 10/1/8 23/1/8 27/1/8
f 63/1/9 2/1/9 10/1/9
f 10/1/10 47/1/10 51/1/10
f 35/1/11 10/1/11 31/1/11
f 23/1/12 10/1/12 19/1/12
f 10/1/13 35/1/13 39/1/13
f 55/1/14 10/1/14 51/1/14
f 6/1/15 10/1/15 2/1/15
f 3/1/16 2/1/16 63/1/16 64/1/16
f 56/1/17 60/1/17 59/1/17 55/1/17
f 48/1/18 52/1/18 51/1/18 47/1/18
f 44/1/19 43/1/19 39/1/19 40/1/19
f 32/1/20 36/1/20 35/1/20 31/1/20
f 7/1/21 6/1/21 2/1/21 3/1/21
f 60/1/22 64/1/22 63/1/22 59/1/22
f 56/1/23 55/1/23 51/1/23 52/1/23
f 44/1/24 48/1/24 47/1/24 43/1/24
f 36/1/25 40/1/25 39/1/25 35/1/25
f 4/1/26 3/1/26 64/1/26 65/1/26
f 57/1/27 61/1/27 60/1/27 56/1/27
f 49/1/28 53/1/28 52/1/28 48/1/28
f 45/1/29 44/1/29 40/1/29 41/1/29
f 33/1/30 37/1/30 36/1/30 32/1/30
f 25/1/31 29/1/31 28/1/31 24/1/31
f 21/1/32 20/1/32 16/1/32 17/1/32
f 13/1/33 12/1/33 7/1/33 8/1/33
f 45/1/34 49/1/34 48/1/34 44/1/34
f 37/1/35 41/1/35 40/1/35 36/1/35
f 33/1/36 32/1/36 28/1/36 29/1/36
f 21/1/37 25/1/37 24/1/37 20/1/37
f 13/1/38 17/1/38 16/1/38 12/1/38
f 8/1/39 7/1/39 3/1/39 4/1/39
f 61/1/40 65/1/40 64/1/40 60/1/40
f 57/1/41 56/1/41 52/1/41 53/1/41
f 30/1/42 29/1/42 25/1/42 26/1/42
f 34/1/43 38/1/43 37/1/43 33/1/43
f 42/1/44 46/1/44 45/1/44 41/1/44
f 54/1/45 53/1/45 49/1/45 50/1/45
f 62/1/46 61/1/46 57/1/46 58/1/46
f 5/1/47 4/1/47 65/1/47 1/1/47
f 9/1/48 14/1/48 13/1/48 8/1/48
f 18/1/49 22/1/49 21/1/49 17/1/49
f 30/1/50 34/1/50 33/1/50 29/1/50
f 22/1/51 26/1/51 25/1/51 21/1/51
f 18/1/52 17/1/52 13/1/52 14/1/52
f 5/1/53 9/1/53 8/1/53 4/1/53
f 62/1/54 1/1/54 65/1/54 61/1/54
f 58/1/55 57/1/55 53/1/55 54/1/55
f 46/1/56 50/1/56 49/1/56 45/1/56
f 42/1/57 41/1/57 37/1/57 38/1/57
f 32/1/58 31/1/58 27/1/58 28/1/58
f 27/1/59 23/1/59 24/1/59 28/1/59
f 23/1/60 19/1/60 20/1/60 24/1/60
f 19/1/61 15/1/61 16/1/61 20/1/61
f 15/1/62 11/1/62 12/1/62 16/1/62
f 7/1/63 12/1/63 11/1/63 6/1/63
f 15/1/64 19/1/64 10/1/64
f 75/1/65 92/1/65 96/1/65
f 112/1/66 75/1/66 108/1/66
f 75/1/67 124/1/67 128/1/67
f 75/1/68 71/1/68 76/1/68
f 80/1/69 75/1/69 76/1/69
f 124/1/70 75/1/70 120/1/70
f 108/1/71 75/1/71 104/1/71
f 75/1/72 88/1/72 92/1/72
f 128/1/73 67/1/73 75/1/73
f 75/1/74 112/1/74 116/1/74
f 100/1/75 75/1/75 96/1/75
f 88/1/76 75/1/76 84/1/76
f 75/1/77 100/1/77 104/1/77
f 120/1/78 75/1/78 116/1/78
f 71/1/79 75/1/79 67/1/79
f 68/1/80 67/1/80 128/1/80 129/1/80
f 121/1/81 125/1/81 124/1/81 120/1/81
f 113/1/82 117/1/82 116/1/82 112/1/82
f 109/1/83 108/1/83 104/1/83 105/1/83
f 97/1/84 101/1/84 100/1/84 96/1/84
f 72/1/85 71/1/85 67/1/85 68/1/85
f 125/1/86 129/1/86 128/1/86 124/1/86
f 121/1/87 120/1/87 116/1/87 117/1/87
f 109/1/88 113/1/88 112/1/88 108/1/88
f 101/1/89 105/1/89 104/1/89 100/1/89
f 69/1/90 68/1/90 129/1/90 130/1/90
f 122/1/91 126/1/91 125/1/91 121/1/91
f 114/1/92 118/1/92 117/1/92 113/1/92
f 110/1/93 109/1/93 105/1/93 106/1/93
f 98/1/94 102/1/94 101/1/94 97/1/94
f 90/1/95 94/1/95 93/1/95 89/1/95
f 86/1/96 85/1/96 81/1/96 82/1/96
f 78/1/97 77/1/97 72/1/97 73/1/97
f 110/1/98 114/1/98 113/1/98 109/1/98
f 102/1/99 106/1/99 105/1/99 101/1/99
f 98/1/100 97/1/100 93/1/100 94/1/100
f 86/1/101 90/1/101 89/1/101 85/1/101
f 78/1/102 82/1/102 81/1/102 77/1/102
f 73/1/103 72/1/103 68/1/103 69/1/103
f 126/1/104 130/1/104 129/1/104 125/1/104
f 122/1/105 121/1/105 117/1/105 118/1/105
f 95/1/106 94/1/106 90/1/106 91/1/106
f 99/1/107 103/1/107 102/1/107 98/1/107
f 107/1/108 111/1/108 110/1/108 106/1/108
f 119/1/109 118/1/109 114/1/109 115/1/109
f 127/1/110 126/1/110 122/1/110 123/1/110
f 70/1/111 69/1/111 130/1/111 66/1/111
f 74/1/112 79/1/112 78/1/112 73/1/112
f 83/1/113 87/1/113 86/1/113 82/1/113
f 95/1/114 99/1/114 98/1/114 94/1/114
f 87/1/115 91/1/115 90/1/115 86/1/115
f 83/1/116 82/1/116 78/1/116 79/1/116
f 70/1/117 74/1/117 73/1/117 69/1/117
f 127/1/118 66/1/118 130/1/118 126/1/118
f 123/1/119 122/1/119 118/1/119 119/1/119
f 111/1/120 115/1/120 114/1/120 110/1/120
f 107/1/121 106/1/121 102/1/121 103/1/121
f 97/1/122 96/1/122 92/1/122 93/1/122
f 92/1/123 88/1/123 89/1/123 93/1/123
f 88/1/124 84/1/124 85/1/124 89/1/124
f 84/1/125 80/1/125 81/1/125 85/1/125
f 80/1/126 76/1/126 77/1/126 81/1/126
f 72/1/127 77/1/127 76/1/127 71/1/127
f 80/1/128 84/1/128 75/1/128
f 50/1/129 83/1/129 79/1/129 54/1/129
f 54/1/130 79/1/130 74/1/130 58/1/130
f 58/1/131 74/1/131 70/1/131 62/1/131
f 62/1/132 70/1/132 66/1/132 1/1/132
f 5/1/133 1/1/133 66/1/133 127/1/133
f 9/1/134 123/1/134 119/1/134 14/1/134
f 5/1/135 127/1/135 123/1/135 9/1/135
f 14/1/136 119/1/136 115/1/136 18/1/136
f 18/1/137 115/1/137 111/1/137 22/1/137
f 22/1/138 111/1/138 107/1/138 26/1/138
f 26/1/139 107/1/139 103/1/139 30/1/139
f 30/1/140 103/1/140 99/1/140 34/1/140
f 34/1/141 99/1/141 95/1/141 38/1/141
f 38/1/142 95/1/142 91/1/142 42/1/142
f 42/1/143 91/1/143 87/1/143 46/1/143
f 46/1/144 87/1/144 83/1/144 50/1/144
